<svg xmlns="http://www.w3.org/2000/svg" xmlns:xlink="http://www.w3.org/1999/xlink" xmlns:lucid="lucid" width="1623.25" height="994.5"><g transform="translate(-31.5 -45.999999999999986)" lucid:page-tab-id="0_0"><path d="M647.5 185a5 5 0 0 1 5-5h150a5 5 0 0 1 5 5v110a5 5 0 0 1-5 5h-150a5 5 0 0 1-5-5z" stroke="#000" stroke-opacity="0" stroke-width="2" fill="#4397ff"/><use xlink:href="#a" transform="matrix(1,0,0,1,652.5,185) translate(46.05 58.6)"/><path d="M727.5 300.5v7.5a12 12 0 0 0 12 12h301a12 12 0 0 1 12 12v7.5" stroke="#333" fill="none"/><path d="M728 300.5h-1v-.5h1zM1053 340h-1v-.5h1z" stroke="#333" stroke-width=".05" fill="#333"/><path d="M972.5 345a5 5 0 0 1 5-5h150a5 5 0 0 1 5 5v110a5 5 0 0 1-5 5h-150a5 5 0 0 1-5-5z" stroke="#000" stroke-opacity="0" stroke-width="2" fill="#ff8080"/><use xlink:href="#b" transform="matrix(1,0,0,1,977.5,345) translate(24.549999999999997 47.8)"/><use xlink:href="#c" transform="matrix(1,0,0,1,977.5,345) translate(110.45 47.8)"/><use xlink:href="#d" transform="matrix(1,0,0,1,977.5,345) translate(42.05 69.4)"/><path d="M727.5 300.5v7.5a12 12 0 0 0 12 12h121a12 12 0 0 1 12 12v7.5" stroke="#333" fill="none"/><path d="M728 300.5h-1v-.5h1zM873 340h-1v-.5h1z" stroke="#333" stroke-width=".05" fill="#333"/><path d="M792.5 345a5 5 0 0 1 5-5h150a5 5 0 0 1 5 5v110a5 5 0 0 1-5 5h-150a5 5 0 0 1-5-5z" stroke="#000" stroke-opacity="0" stroke-width="2" fill="#ff8080"/><use xlink:href="#e" transform="matrix(1,0,0,1,797.5,345) translate(36.05 47.8)"/><use xlink:href="#f" transform="matrix(1,0,0,1,797.5,345) translate(32.825 69.4)"/><path d="M322.5 345a5 5 0 0 1 5-5h150a5 5 0 0 1 5 5v110a5 5 0 0 1-5 5h-150a5 5 0 0 1-5-5z" stroke="#000" stroke-opacity="0" stroke-width="2" fill="#ff8080"/><use xlink:href="#g" transform="matrix(1,0,0,1,327.5,345) translate(39.525 58.6)"/><use xlink:href="#h" transform="matrix(1,0,0,1,327.5,345) translate(55.525 58.6)"/><path d="M727.5 300.5v7.5a12 12 0 0 1-12 12h-301a12 12 0 0 0-12 12v7.5" stroke="#333" fill="none"/><path d="M728 300.5h-1v-.5h1zM403 340h-1v-.5h1z" stroke="#333" stroke-width=".05" fill="#333"/><path d="M402.5 460.5v7.5a12 12 0 0 1-12 12h-246a12 12 0 0 0-12 12v7.5" stroke="#333" fill="none"/><path d="M403 460.5h-1v-.5h1zM133 500h-1v-.5h1z" stroke="#333" stroke-width=".05" fill="#333"/><path d="M52.5 505a5 5 0 0 1 5-5h150a5 5 0 0 1 5 5v110a5 5 0 0 1-5 5h-150a5 5 0 0 1-5-5z" stroke="#000" stroke-opacity="0" stroke-width="2" fill="#ffa056"/><use xlink:href="#i" transform="matrix(1,0,0,1,57.5,505) translate(32.574999999999996 47.8)"/><use xlink:href="#j" transform="matrix(1,0,0,1,57.5,505) translate(30.9 69.4)"/><path d="M412.5 505a5 5 0 0 1 5-5h150a5 5 0 0 1 5 5v110a5 5 0 0 1-5 5h-150a5 5 0 0 1-5-5z" stroke="#000" stroke-opacity="0" stroke-width="2" fill="#ffa056"/><use xlink:href="#k" transform="matrix(1,0,0,1,417.5,505) translate(7.599999999999994 58.6)"/><use xlink:href="#l" transform="matrix(1,0,0,1,417.5,505) translate(85.5 58.6)"/><path d="M402.5 460.5v7.5a12 12 0 0 1-12 12h-66a12 12 0 0 0-12 12v7.5" stroke="#333" fill="none"/><path d="M403 460.5h-1v-.5h1zM313 500h-1v-.5h1z" stroke="#333" stroke-width=".05" fill="#333"/><path d="M792.5 505a5 5 0 0 1 5-5h150a5 5 0 0 1 5 5v110a5 5 0 0 1-5 5h-150a5 5 0 0 1-5-5z" stroke="#000" stroke-opacity="0" stroke-width="2" fill="#ffa056"/><use xlink:href="#m" transform="matrix(1,0,0,1,797.5,505) translate(35.074999999999996 37)"/><use xlink:href="#n" transform="matrix(1,0,0,1,797.5,505) translate(94.92500000000001 37)"/><use xlink:href="#o" transform="matrix(1,0,0,1,797.5,505) translate(42.05 58.6)"/><use xlink:href="#f" transform="matrix(1,0,0,1,797.5,505) translate(32.825 80.20000000000002)"/><path d="M872.5 460.5v39" stroke="#333" fill="none"/><path d="M873 460.5h-1v-.5h1zM873 500h-1v-.5h1z" stroke="#333" stroke-width=".05" fill="#333"/><path d="M453.15 75a8 8 0 0 1 8-8h836.75a8 8 0 0 1 8 8v50.53a8 8 0 0 1-8 8H461.15a8 8 0 0 1-8-8z" stroke="#000" stroke-opacity="0" stroke-width="2" fill="#fff" fill-opacity="0"/><use xlink:href="#p" transform="matrix(1,0,0,1,457.14655278534315,70.99999999999999) translate(237.77481481481485 34.72027777777778)"/><use xlink:href="#q" transform="matrix(1,0,0,1,457.14655278534315,70.99999999999999) translate(335.30691358024694 34.72027777777778)"/><use xlink:href="#r" transform="matrix(1,0,0,1,457.14655278534315,70.99999999999999) translate(451.0488888888889 34.72027777777778)"/><use xlink:href="#s" transform="matrix(1,0,0,1,457.14655278534315,70.99999999999999) translate(467.00074074074075 34.72027777777778)"/><use xlink:href="#t" transform="matrix(1,0,0,1,457.14655278534315,70.99999999999999) translate(529.5698765432098 34.72027777777778)"/><use xlink:href="#u" transform="matrix(1,0,0,1,457.14655278534315,70.99999999999999) translate(568.7575308641975 34.72027777777778)"/><path d="M696.6 131.36h374.12M696.62 131.36h-1.03M1070.7 131.36h1.02" stroke="#a9afb8" stroke-width="2" fill="none"/><path d="M453.15 141.53a8 8 0 0 1 8-8h837.7a8 8 0 0 1 8 8V156a8 8 0 0 1-8 8h-837.7a8 8 0 0 1-8-8z" stroke="#000" stroke-opacity="0" stroke-width="2" fill="#fff" fill-opacity="0"/><use xlink:href="#v" transform="matrix(1,0,0,1,457.14655278534366,137.53427873006152) translate(323.1874691358025 16.354537037037037)"/><use xlink:href="#w" transform="matrix(1,0,0,1,457.14655278534366,137.53427873006152) translate(331.68541152263373 16.354537037037037)"/><use xlink:href="#x" transform="matrix(1,0,0,1,457.14655278534366,137.53427873006152) translate(359.64364197530864 16.354537037037037)"/><use xlink:href="#y" transform="matrix(1,0,0,1,457.14655278534366,137.53427873006152) translate(372.3905555555556 16.354537037037037)"/><use xlink:href="#z" transform="matrix(1,0,0,1,457.14655278534366,137.53427873006152) translate(402.0483744855967 16.354537037037037)"/><use xlink:href="#A" transform="matrix(1,0,0,1,457.14655278534366,137.53427873006152) translate(423.2932304526749 16.354537037037037)"/><use xlink:href="#B" transform="matrix(1,0,0,1,457.14655278534366,137.53427873006152) translate(495.44076131687245 16.354537037037037)"/><path d="M320 805a5 5 0 0 1 5-5h350a5 5 0 0 1 5 5v210a5 5 0 0 1-5 5H325a5 5 0 0 1-5-5z" stroke="#333" fill="#fff"/><use xlink:href="#C" transform="matrix(1,0,0,1,324.8,804.8) translate(134.5 19.2)"/><path d="M358.57 905a5 5 0 0 1 5-5H405a5 5 0 0 1 5 5v30a5 5 0 0 1-5 5h-41.43a5 5 0 0 1-5-5z" stroke="#000" stroke-opacity="0" stroke-width="2" fill="#ffa056"/><path d="M358.57 845a5 5 0 0 1 5-5H405a5 5 0 0 1 5 5v30a5 5 0 0 1-5 5h-41.43a5 5 0 0 1-5-5z" stroke="#000" stroke-opacity="0" stroke-width="2" fill="#ff8080"/><path d="M435.7 845a5 5 0 0 1 5-5h221.44a5 5 0 0 1 5 5v30a5 5 0 0 1-5 5H440.7a5 5 0 0 1-5-5z" stroke="#000" stroke-opacity="0" stroke-width="2" fill="#fff" fill-opacity="0"/><use xlink:href="#D" transform="matrix(1,0,0,1,440.7142857142857,845) translate(4 18.15)"/><use xlink:href="#E" transform="matrix(1,0,0,1,440.7142857142857,845) translate(93.85000000000001 18.15)"/><use xlink:href="#F" transform="matrix(1,0,0,1,440.7142857142857,845) translate(104.80000000000001 18.15)"/><use xlink:href="#G" transform="matrix(1,0,0,1,440.7142857142857,845) translate(135.75 18.15)"/><path d="M435.7 905a5 5 0 0 1 5-5h221.44a5 5 0 0 1 5 5v30a5 5 0 0 1-5 5H440.7a5 5 0 0 1-5-5z" stroke="#000" stroke-opacity="0" stroke-width="2" fill="#fff" fill-opacity="0"/><use xlink:href="#H" transform="matrix(1,0,0,1,440.7142857142857,905) translate(4 18.15)"/><use xlink:href="#E" transform="matrix(1,0,0,1,440.7142857142857,905) translate(76.95 18.15)"/><use xlink:href="#I" transform="matrix(1,0,0,1,440.7142857142857,905) translate(87.9 18.15)"/><use xlink:href="#G" transform="matrix(1,0,0,1,440.7142857142857,905) translate(112.9 18.15)"/><path d="M232.5 505a5 5 0 0 1 5-5h150a5 5 0 0 1 5 5v110a5 5 0 0 1-5 5h-150a5 5 0 0 1-5-5z" stroke="#000" stroke-opacity="0" stroke-width="2" fill="#ffa056"/><use xlink:href="#J" transform="matrix(1,0,0,1,237.5,505) translate(28.075000000000003 47.8)"/><use xlink:href="#K" transform="matrix(1,0,0,1,237.5,505) translate(101.925 47.8)"/><use xlink:href="#L" transform="matrix(1,0,0,1,237.5,505) translate(20.099999999999994 69.4)"/><path d="M402.5 460.5v7.5a12 12 0 0 0 12 12h246a12 12 0 0 1 12 12v2.5" stroke="#333" fill="none"/><path d="M403 460.5h-1v-.5h1zM673 495h-1v-.5h1z" stroke="#333" stroke-width=".05" fill="#333"/><path d="M592.5 505a5 5 0 0 1 5-5h150a5 5 0 0 1 5 5v110a5 5 0 0 1-5 5h-150a5 5 0 0 1-5-5z" stroke="#54c45e" stroke-width="10" fill="#ffa056"/><use xlink:href="#M" transform="matrix(1,0,0,1,597.5,505) translate(28.049999999999997 58.6)"/><use xlink:href="#N" transform="matrix(1,0,0,1,597.5,505) translate(69 58.6)"/><use xlink:href="#O" transform="matrix(1,0,0,1,597.5,505) translate(94 58.6)"/><path d="M872.5 620.5v79.18a12 12 0 0 0 12 12h396.67" stroke="#333" fill="none"/><path d="M873 620.5h-1v-.5h1z" stroke="#333" stroke-width=".05" fill="#333"/><path d="M1281.15 711.68h.52" stroke="#333" fill="none"/><path d="M1480 345a5 5 0 0 1 5-5h143.75a5 5 0 0 1 5 5v110a5 5 0 0 1-5 5H1485a5 5 0 0 1-5-5z" stroke="#000" stroke-opacity="0" stroke-width="2" fill="#ff8080"/><use xlink:href="#P" transform="matrix(1,0,0,1,1485,345) translate(29.049999999999997 58.6)"/><path d="M1201.33 345a5 5 0 0 1 5-5H1357a5 5 0 0 1 5 5v110a5 5 0 0 1-5 5h-150.67a5 5 0 0 1-5-5z" stroke="#000" stroke-opacity="0" stroke-width="2" fill="#ff8080"/><g><use xlink:href="#Q" transform="matrix(1,0,0,1,1213.333333333333,351.99999999999994) translate(8.049999999999997 50.775)"/><use xlink:href="#R" transform="matrix(1,0,0,1,1213.333333333333,351.99999999999994) translate(55 50.775)"/></g><path d="M1312 505a5 5 0 0 1 5-5h150a5 5 0 0 1 5 5v110a5 5 0 0 1-5 5h-150a5 5 0 0 1-5-5z" stroke="#000" stroke-opacity="0" stroke-width="2" fill="#ffa056"/><g><use xlink:href="#S" transform="matrix(1,0,0,1,1317,505) translate(19.049999999999997 58.6)"/><use xlink:href="#T" transform="matrix(1,0,0,1,1317,505) translate(52 58.6)"/></g><path d="M1312 657.74a5 5 0 0 1 5-5h150a5 5 0 0 1 5 5v110a5 5 0 0 1-5 5h-150a5 5 0 0 1-5-5z" stroke="#000" stroke-opacity="0" stroke-width="2" fill="#ffa056"/><g><use xlink:href="#S" transform="matrix(1,0,0,1,1317,657.7390111879957) translate(18.65 58.6)"/><use xlink:href="#U" transform="matrix(1,0,0,1,1317,657.7390111879957) translate(51.6 58.6)"/></g><path d="M1306.85 810.48a5 5 0 0 1 5-5h150a5 5 0 0 1 5 5v110a5 5 0 0 1-5 5h-150a5 5 0 0 1-5-5z" stroke="#000" stroke-opacity="0" stroke-width="2" fill="#ffa056"/><g><use xlink:href="#V" transform="matrix(1,0,0,1,1311.8534472146569,810.4780223759915) translate(29.599999999999994 47.8)"/><use xlink:href="#W" transform="matrix(1,0,0,1,1311.8534472146569,810.4780223759915) translate(106.45 47.8)"/><use xlink:href="#X" transform="matrix(1,0,0,1,1311.8534472146569,810.4780223759915) translate(47.025 69.4)"/></g><path d="M1306.35 865.48h-12.68a12 12 0 0 1-12-12V460.5" stroke="#333" fill="none"/><path d="M1306.85 865.98h-.5v-1h.5zM1282.17 460.5h-1v-.5h1z" stroke="#333" stroke-width=".05" fill="#333"/><path d="M1052.5 339.5V332a12 12 0 0 1 12-12h495" stroke="#333" fill="none"/><path d="M1053 340h-1v-.5h1z" stroke="#333" stroke-width=".05" fill="#333"/><path d="M1559.5 320h.5" stroke="#333" fill="none"/><path d="M1560.16 339v-18" stroke="#333" stroke-width="2" fill="none"/><path d="M1561.16 340h-2v-1.03h2z" stroke="#333" stroke-width=".05" fill="#333"/><path d="M1560.16 321.03V320" stroke="#333" stroke-width="2" fill="none"/><path d="M1281.67 339.5v-19" stroke="#333" fill="none"/><path d="M1282.17 340h-1v-.5h1z" stroke="#333" stroke-width=".05" fill="#333"/><path d="M1281.67 320.5v-.5M1311.5 711.48h-26.1a3.73 3.73 0 0 1-3.73-3.74" stroke="#333" fill="none"/><path d="M1312 711.98h-.5v-1h.5z" stroke="#333" stroke-width=".05" fill="#333"/><path d="M1281.67 707.76v-.5M1311.5 545.48h-25.95a3.9 3.9 0 0 1-3.88-3.9" stroke="#333" fill="none"/><path d="M1312 545.98h-.5v-1h.5z" stroke="#333" stroke-width=".05" fill="#333"/><path d="M1281.67 541.6v-.5M499.25 499.5v-19" stroke="#333" fill="none"/><path d="M499.75 500h-1v-.5h1z" stroke="#333" stroke-width=".05" fill="#333"/><path d="M499.25 480.5v-.5" stroke="#333" fill="none"/><defs><path fill="#fff" d="M205 0l-28-72H64L36 0H1l101-248h38L239 0h-34zm-38-99l-47-123c-12 45-31 82-46 123h93" id="Y"/><path fill="#fff" d="M96-169c-40 0-48 33-48 73s9 75 48 75c24 0 41-14 43-38l32 2c-6 37-31 61-74 61-59 0-76-41-82-99-10-93 101-131 147-64 4 7 5 14 7 22l-32 3c-4-21-16-35-41-35" id="Z"/><path fill="#fff" d="M84 4C-5 8 30-112 23-190h32v120c0 31 7 50 39 49 72-2 45-101 50-169h31l1 190h-30c-1-10 1-25-2-33-11 22-28 36-60 37" id="aa"/><path fill="#fff" d="M100-194c63 0 86 42 84 106H49c0 40 14 67 53 68 26 1 43-12 49-29l28 8c-11 28-37 45-77 45C44 4 14-33 15-96c1-61 26-98 85-98zm52 81c6-60-76-77-97-28-3 7-6 17-6 28h103" id="ab"/><path fill="#fff" d="M24-231v-30h32v30H24zM24 0v-190h32V0H24" id="ac"/><path fill="#fff" d="M24 0v-261h32V0H24" id="ad"/><g id="a"><use transform="matrix(0.05,0,0,0.05,0,0)" xlink:href="#Y"/><use transform="matrix(0.05,0,0,0.05,12,0)" xlink:href="#Z"/><use transform="matrix(0.05,0,0,0.05,21,0)" xlink:href="#Z"/><use transform="matrix(0.05,0,0,0.05,30,0)" xlink:href="#aa"/><use transform="matrix(0.05,0,0,0.05,40,0)" xlink:href="#ab"/><use transform="matrix(0.05,0,0,0.05,50,0)" xlink:href="#ac"/><use transform="matrix(0.05,0,0,0.05,53.95,0)" xlink:href="#ad"/></g><path fill="#333" d="M30 0v-248h187v28H63v79h144v27H63v87h162V0H30" id="ae"/><path fill="#333" d="M117-194c89-4 53 116 60 194h-32v-121c0-31-8-49-39-48C34-167 62-67 57 0H25l-1-190h30c1 10-1 24 2 32 11-22 29-35 61-36" id="af"/><path fill="#333" d="M59-47c-2 24 18 29 38 22v24C64 9 27 4 27-40v-127H5v-23h24l9-43h21v43h35v23H59v120" id="ag"/><path fill="#333" d="M114-163C36-179 61-72 57 0H25l-1-190h30c1 12-1 29 2 39 6-27 23-49 58-41v29" id="ah"/><path fill="#333" d="M100-194c63 0 86 42 84 106H49c0 40 14 67 53 68 26 1 43-12 49-29l28 8c-11 28-37 45-77 45C44 4 14-33 15-96c1-61 26-98 85-98zm52 81c6-60-76-77-97-28-3 7-6 17-6 28h103" id="ai"/><path fill="#333" d="M24-231v-30h32v30H24zM24 0v-190h32V0H24" id="aj"/><path fill="#333" d="M135-143c-3-34-86-38-87 0 15 53 115 12 119 90S17 21 10-45l28-5c4 36 97 45 98 0-10-56-113-15-118-90-4-57 82-63 122-42 12 7 21 19 24 35" id="ak"/><g id="b"><use transform="matrix(0.05,0,0,0.05,0,0)" xlink:href="#ae"/><use transform="matrix(0.05,0,0,0.05,12,0)" xlink:href="#af"/><use transform="matrix(0.05,0,0,0.05,22,0)" xlink:href="#ag"/><use transform="matrix(0.05,0,0,0.05,27,0)" xlink:href="#ah"/><use transform="matrix(0.05,0,0,0.05,32.95,0)" xlink:href="#ai"/><use transform="matrix(0.05,0,0,0.05,42.95,0)" xlink:href="#ag"/><use transform="matrix(0.05,0,0,0.05,47.95,0)" xlink:href="#aj"/><use transform="matrix(0.05,0,0,0.05,51.900000000000006,0)" xlink:href="#ai"/><use transform="matrix(0.05,0,0,0.05,61.900000000000006,0)" xlink:href="#af"/><use transform="matrix(0.05,0,0,0.05,71.9,0)" xlink:href="#ak"/></g><g id="c"><use transform="matrix(0.05,0,0,0.05,0,0)" xlink:href="#ai"/><use transform="matrix(0.05,0,0,0.05,10,0)" xlink:href="#ag"/></g><path fill="#333" d="M108 0H70L1-190h34L89-25l56-165h34" id="al"/><path fill="#333" d="M96-169c-40 0-48 33-48 73s9 75 48 75c24 0 41-14 43-38l32 2c-6 37-31 61-74 61-59 0-76-41-82-99-10-93 101-131 147-64 4 7 5 14 7 22l-32 3c-4-21-16-35-41-35" id="am"/><g id="d"><use transform="matrix(0.05,0,0,0.05,0,0)" xlink:href="#ak"/><use transform="matrix(0.05,0,0,0.05,9,0)" xlink:href="#ai"/><use transform="matrix(0.05,0,0,0.05,19,0)" xlink:href="#ah"/><use transform="matrix(0.05,0,0,0.05,24.95,0)" xlink:href="#al"/><use transform="matrix(0.05,0,0,0.05,33.95,0)" xlink:href="#aj"/><use transform="matrix(0.05,0,0,0.05,37.900000000000006,0)" xlink:href="#am"/><use transform="matrix(0.05,0,0,0.05,46.900000000000006,0)" xlink:href="#ai"/><use transform="matrix(0.05,0,0,0.05,56.900000000000006,0)" xlink:href="#ak"/></g><path fill="#333" d="M137 0h-34L2-248h35l83 218 83-218h36" id="an"/><path fill="#333" d="M100-194c63 0 86 42 84 106H49c0 40 14 67 53 68 26 1 43-12 49-29l28 8c-11 28-37 45-77 45C44 4 14-33 15-96c1-61 26-98 85-98zm52 81c6-60-76-77-97-28-3 7-6 17-6 28h103zm-74-98c8-23 27-35 38-54h36v5l-58 49H78" id="ao"/><path fill="#333" d="M106-169C34-169 62-67 57 0H25v-261h32l-1 103c12-21 28-36 61-36 89 0 53 116 60 194h-32v-121c2-32-8-49-39-48" id="ap"/><path fill="#333" d="M84 4C-5 8 30-112 23-190h32v120c0 31 7 50 39 49 72-2 45-101 50-169h31l1 190h-30c-1-10 1-25-2-33-11 22-28 36-60 37" id="aq"/><path fill="#333" d="M24 0v-261h32V0H24" id="ar"/><g id="e"><use transform="matrix(0.05,0,0,0.05,0,0)" xlink:href="#an"/><use transform="matrix(0.05,0,0,0.05,12,0)" xlink:href="#ao"/><use transform="matrix(0.05,0,0,0.05,22,0)" xlink:href="#ap"/><use transform="matrix(0.05,0,0,0.05,32,0)" xlink:href="#aj"/><use transform="matrix(0.05,0,0,0.05,35.95,0)" xlink:href="#am"/><use transform="matrix(0.05,0,0,0.05,44.95,0)" xlink:href="#aq"/><use transform="matrix(0.05,0,0,0.05,54.95,0)" xlink:href="#ar"/><use transform="matrix(0.05,0,0,0.05,58.900000000000006,0)" xlink:href="#ai"/><use transform="matrix(0.05,0,0,0.05,68.9,0)" xlink:href="#ak"/></g><path fill="#333" d="M85-194c31 0 48 13 60 33l-1-100h32l1 261h-30c-2-10 0-23-3-31C134-8 116 4 85 4 32 4 16-35 15-94c0-66 23-100 70-100zm9 24c-40 0-46 34-46 75 0 40 6 74 45 74 42 0 51-32 51-76 0-42-9-74-50-73" id="as"/><path fill="#333" d="M47-170H22l-4-78h33" id="at"/><path fill="#333" d="M100-194c62-1 85 37 85 99 1 63-27 99-86 99S16-35 15-95c0-66 28-99 85-99zM99-20c44 1 53-31 53-75 0-43-8-75-51-75s-53 32-53 75 10 74 51 75" id="au"/><path fill="#333" d="M141-36C126-15 110 5 73 4 37 3 15-17 15-53c-1-64 63-63 125-63 3-35-9-54-41-54-24 1-41 7-42 31l-33-3c5-37 33-52 76-52 45 0 72 20 72 64v82c-1 20 7 32 28 27v20c-31 9-61-2-59-35zM48-53c0 20 12 33 32 33 41-3 63-29 60-74-43 2-92-5-92 41" id="av"/><g id="f"><use transform="matrix(0.05,0,0,0.05,0,0)" xlink:href="#as"/><use transform="matrix(0.05,0,0,0.05,10,0)" xlink:href="#at"/><use transform="matrix(0.05,0,0,0.05,13.4,0)" xlink:href="#au"/><use transform="matrix(0.05,0,0,0.05,23.4,0)" xlink:href="#am"/><use transform="matrix(0.05,0,0,0.05,32.4,0)" xlink:href="#am"/><use transform="matrix(0.05,0,0,0.05,41.4,0)" xlink:href="#av"/><use transform="matrix(0.05,0,0,0.05,51.400000000000006,0)" xlink:href="#ak"/><use transform="matrix(0.05,0,0,0.05,60.400000000000006,0)" xlink:href="#aj"/><use transform="matrix(0.05,0,0,0.05,64.35,0)" xlink:href="#au"/><use transform="matrix(0.05,0,0,0.05,74.35,0)" xlink:href="#af"/></g><path fill="#333" d="M205 0l-28-72H64L36 0H1l101-248h38L239 0h-34zm-38-99l-47-123c-12 45-31 82-46 123h93" id="aw"/><use transform="matrix(0.05,0,0,0.05,0,0)" xlink:href="#aw" id="g"/><path fill="#333" d="M115-194c55 1 70 41 70 98S169 2 115 4C84 4 66-9 55-30l1 105H24l-1-265h31l2 30c10-21 28-34 59-34zm-8 174c40 0 45-34 45-75s-6-73-45-74c-42 0-51 32-51 76 0 43 10 73 51 73" id="ax"/><g id="h"><use transform="matrix(0.05,0,0,0.05,0,0)" xlink:href="#ax"/><use transform="matrix(0.05,0,0,0.05,10,0)" xlink:href="#ah"/><use transform="matrix(0.05,0,0,0.05,15.949999999999998,0)" xlink:href="#au"/><use transform="matrix(0.05,0,0,0.05,25.950000000000003,0)" xlink:href="#ax"/><use transform="matrix(0.05,0,0,0.05,35.95,0)" xlink:href="#au"/><use transform="matrix(0.05,0,0,0.05,45.95,0)" xlink:href="#ak"/></g><path fill="#333" d="M212-179c-10-28-35-45-73-45-59 0-87 40-87 99 0 60 29 101 89 101 43 0 62-24 78-52l27 14C228-24 195 4 139 4 59 4 22-46 18-125c-6-104 99-153 187-111 19 9 31 26 39 46" id="ay"/><g id="i"><use transform="matrix(0.05,0,0,0.05,0,0)" xlink:href="#ay"/><use transform="matrix(0.05,0,0,0.05,12.950000000000001,0)" xlink:href="#au"/><use transform="matrix(0.05,0,0,0.05,22.950000000000003,0)" xlink:href="#af"/><use transform="matrix(0.05,0,0,0.05,32.95,0)" xlink:href="#as"/><use transform="matrix(0.05,0,0,0.05,42.95,0)" xlink:href="#aj"/><use transform="matrix(0.05,0,0,0.05,46.900000000000006,0)" xlink:href="#ag"/><use transform="matrix(0.05,0,0,0.05,51.900000000000006,0)" xlink:href="#aj"/><use transform="matrix(0.05,0,0,0.05,55.85,0)" xlink:href="#au"/><use transform="matrix(0.05,0,0,0.05,65.85000000000001,0)" xlink:href="#af"/><use transform="matrix(0.05,0,0,0.05,75.85000000000001,0)" xlink:href="#ak"/></g><g id="j"><use transform="matrix(0.05,0,0,0.05,0,0)" xlink:href="#as"/><use transform="matrix(0.05,0,0,0.05,10,0)" xlink:href="#at"/><use transform="matrix(0.05,0,0,0.05,13.4,0)" xlink:href="#aq"/><use transform="matrix(0.05,0,0,0.05,23.4,0)" xlink:href="#ag"/><use transform="matrix(0.05,0,0,0.05,28.399999999999995,0)" xlink:href="#aj"/><use transform="matrix(0.05,0,0,0.05,32.35,0)" xlink:href="#ar"/><use transform="matrix(0.05,0,0,0.05,36.300000000000004,0)" xlink:href="#aj"/><use transform="matrix(0.05,0,0,0.05,40.25000000000001,0)" xlink:href="#ak"/><use transform="matrix(0.05,0,0,0.05,49.25000000000001,0)" xlink:href="#av"/><use transform="matrix(0.05,0,0,0.05,59.25,0)" xlink:href="#ag"/><use transform="matrix(0.05,0,0,0.05,64.25,0)" xlink:href="#aj"/><use transform="matrix(0.05,0,0,0.05,68.2,0)" xlink:href="#au"/><use transform="matrix(0.05,0,0,0.05,78.2,0)" xlink:href="#af"/></g><path fill="#333" d="M240 0l2-218c-23 76-54 145-80 218h-23L58-218 59 0H30v-248h44l77 211c21-75 51-140 76-211h43V0h-30" id="az"/><g id="k"><use transform="matrix(0.05,0,0,0.05,0,0)" xlink:href="#az"/><use transform="matrix(0.05,0,0,0.05,14.950000000000001,0)" xlink:href="#ai"/><use transform="matrix(0.05,0,0,0.05,24.950000000000003,0)" xlink:href="#af"/><use transform="matrix(0.05,0,0,0.05,34.95,0)" xlink:href="#ag"/><use transform="matrix(0.05,0,0,0.05,39.95,0)" xlink:href="#aj"/><use transform="matrix(0.05,0,0,0.05,43.900000000000006,0)" xlink:href="#au"/><use transform="matrix(0.05,0,0,0.05,53.900000000000006,0)" xlink:href="#af"/><use transform="matrix(0.05,0,0,0.05,63.900000000000006,0)" xlink:href="#ak"/></g><path fill="#333" d="M177-190C167-65 218 103 67 71c-23-6-38-20-44-43l32-5c15 47 100 32 89-28v-30C133-14 115 1 83 1 29 1 15-40 15-95c0-56 16-97 71-98 29-1 48 16 59 35 1-10 0-23 2-32h30zM94-22c36 0 50-32 50-73 0-42-14-75-50-75-39 0-46 34-46 75s6 73 46 73" id="aA"/><g id="l"><use transform="matrix(0.05,0,0,0.05,0,0)" xlink:href="#ar"/><use transform="matrix(0.05,0,0,0.05,3.95,0)" xlink:href="#ao"/><use transform="matrix(0.05,0,0,0.05,13.949999999999998,0)" xlink:href="#aA"/><use transform="matrix(0.05,0,0,0.05,23.95,0)" xlink:href="#av"/><use transform="matrix(0.05,0,0,0.05,33.95,0)" xlink:href="#ar"/><use transform="matrix(0.05,0,0,0.05,37.900000000000006,0)" xlink:href="#ai"/><use transform="matrix(0.05,0,0,0.05,47.900000000000006,0)" xlink:href="#ak"/></g><path fill="#333" d="M30-248c118-7 216 8 213 122C240-48 200 0 122 0H30v-248zM63-27c89 8 146-16 146-99s-60-101-146-95v194" id="aB"/><g id="m"><use transform="matrix(0.05,0,0,0.05,0,0)" xlink:href="#aB"/><use transform="matrix(0.05,0,0,0.05,12.950000000000001,0)" xlink:href="#ao"/><use transform="matrix(0.05,0,0,0.05,22.950000000000003,0)" xlink:href="#ag"/><use transform="matrix(0.05,0,0,0.05,27.950000000000003,0)" xlink:href="#av"/><use transform="matrix(0.05,0,0,0.05,37.95,0)" xlink:href="#aj"/><use transform="matrix(0.05,0,0,0.05,41.900000000000006,0)" xlink:href="#ar"/><use transform="matrix(0.05,0,0,0.05,45.85000000000001,0)" xlink:href="#ak"/></g><g id="n"><use transform="matrix(0.05,0,0,0.05,0,0)" xlink:href="#as"/><use transform="matrix(0.05,0,0,0.05,10,0)" xlink:href="#aq"/></g><g id="o"><use transform="matrix(0.05,0,0,0.05,0,0)" xlink:href="#al"/><use transform="matrix(0.05,0,0,0.05,9,0)" xlink:href="#ao"/><use transform="matrix(0.05,0,0,0.05,19,0)" xlink:href="#ap"/><use transform="matrix(0.05,0,0,0.05,29,0)" xlink:href="#aj"/><use transform="matrix(0.05,0,0,0.05,32.95,0)" xlink:href="#am"/><use transform="matrix(0.05,0,0,0.05,41.95,0)" xlink:href="#aq"/><use transform="matrix(0.05,0,0,0.05,51.95,0)" xlink:href="#ar"/><use transform="matrix(0.05,0,0,0.05,55.900000000000006,0)" xlink:href="#ai"/></g><path fill="#a9afb8" d="M67-125c0 54 23 88 75 88 28 0 53-7 68-21v-34h-60v-39h108v91C232-14 192 4 140 4 58 4 20-42 15-125 8-236 126-280 215-234c19 10 29 26 37 47l-47 15c-11-23-29-39-63-39-53 1-75 33-75 86" id="aC"/><path fill="#a9afb8" d="M133-34C117-15 103 5 69 4 32 3 11-16 11-54c-1-60 55-63 116-61 1-26-3-47-28-47-18 1-26 9-28 27l-52-2c7-38 36-58 82-57s74 22 75 68l1 82c-1 14 12 18 25 15v27c-30 8-71 5-69-32zm-48 3c29 0 43-24 42-57-32 0-66-3-65 30 0 17 8 27 23 27" id="aD"/><path fill="#a9afb8" d="M135-150c-39-12-60 13-60 57V0H25l-1-190h47c2 13-1 29 3 40 6-28 27-53 61-41v41" id="aE"/><path fill="#a9afb8" d="M195-6C206 82 75 100 31 46c-4-6-6-13-8-21l49-6c3 16 16 24 34 25 40 0 42-37 40-79-11 22-30 35-61 35-53 0-70-43-70-97 0-56 18-96 73-97 30 0 46 14 59 34l2-30h47zm-90-29c32 0 41-27 41-63 0-35-9-62-40-62-32 0-39 29-40 63 0 36 9 62 39 62" id="aF"/><path fill="#a9afb8" d="M185-48c-13 30-37 53-82 52C43 2 14-33 14-96s30-98 90-98c62 0 83 45 84 108H66c0 31 8 55 39 56 18 0 30-7 34-22zm-45-69c5-46-57-63-70-21-2 6-4 13-4 21h74" id="aG"/><g id="p"><use transform="matrix(0.0728395061728395,0,0,0.0728395061728395,0,0)" xlink:href="#aC"/><use transform="matrix(0.0728395061728395,0,0,0.0728395061728395,20.39506172839506,0)" xlink:href="#aD"/><use transform="matrix(0.0728395061728395,0,0,0.0728395061728395,34.96296296296296,0)" xlink:href="#aE"/><use transform="matrix(0.0728395061728395,0,0,0.0728395061728395,45.160493827160494,0)" xlink:href="#aD"/><use transform="matrix(0.0728395061728395,0,0,0.0728395061728395,59.72839506172839,0)" xlink:href="#aF"/><use transform="matrix(0.0728395061728395,0,0,0.0728395061728395,75.68024691358025,0)" xlink:href="#aG"/></g><path fill="#a9afb8" d="M24-248c93 1 206-16 204 79-1 75-69 88-152 82V0H24v-248zm52 121c47 0 100 7 100-41 0-47-54-39-100-39v80" id="aH"/><path fill="#a9afb8" d="M199 0l-22-63H83L61 0H9l90-248h61L250 0h-51zm-33-102l-36-108c-10 38-24 72-36 108h72" id="aI"/><path fill="#a9afb8" d="M240-174c0 40-23 61-54 70L253 0h-59l-57-94H76V0H24v-248c93 4 217-23 216 74zM76-134c48-2 112 12 112-38 0-48-66-32-112-35v73" id="aJ"/><path fill="#a9afb8" d="M140-251c80 0 125 45 125 126S219 4 139 4C58 4 15-44 15-125s44-126 125-126zm-1 214c52 0 73-35 73-88 0-50-21-86-72-86-52 0-73 35-73 86s22 88 72 88" id="aK"/><path fill="#a9afb8" d="M136-208V0H84v-208H4v-40h212v40h-80" id="aL"/><g id="q"><use transform="matrix(0.0728395061728395,0,0,0.0728395061728395,0,0)" xlink:href="#aH"/><use transform="matrix(0.0728395061728395,0,0,0.0728395061728395,15.514814814814814,0)" xlink:href="#aI"/><use transform="matrix(0.0728395061728395,0,0,0.0728395061728395,34.380246913580244,0)" xlink:href="#aJ"/><use transform="matrix(0.0728395061728395,0,0,0.0728395061728395,53.245679012345676,0)" xlink:href="#aJ"/><use transform="matrix(0.0728395061728395,0,0,0.0728395061728395,72.11111111111111,0)" xlink:href="#aK"/><use transform="matrix(0.0728395061728395,0,0,0.0728395061728395,92.50617283950618,0)" xlink:href="#aL"/></g><path fill="#a9afb8" d="M14-72v-43h91v43H14" id="aM"/><use transform="matrix(0.0728395061728395,0,0,0.0728395061728395,0,0)" xlink:href="#aM" id="r"/><path fill="#a9afb8" d="M25 0v-261h50V0H25" id="aN"/><path fill="#a9afb8" d="M135-194c87-1 58 113 63 194h-50c-7-57 23-157-34-157-59 0-34 97-39 157H25l-1-190h47c2 12-1 28 3 38 12-26 28-41 61-42" id="aO"/><g id="s"><use transform="matrix(0.0728395061728395,0,0,0.0728395061728395,0,0)" xlink:href="#aH"/><use transform="matrix(0.0728395061728395,0,0,0.0728395061728395,17.48148148148148,0)" xlink:href="#aN"/><use transform="matrix(0.0728395061728395,0,0,0.0728395061728395,24.76543209876543,0)" xlink:href="#aD"/><use transform="matrix(0.0728395061728395,0,0,0.0728395061728395,39.333333333333336,0)" xlink:href="#aO"/></g><path fill="#a9afb8" d="M88-194c31-1 46 15 58 34l-1-101h50l1 261h-48c-2-10 0-23-3-31C134-8 116 4 84 4 32 4 16-41 15-95c0-56 19-97 73-99zm17 164c33 0 40-30 41-66 1-37-9-64-41-64s-38 30-39 65c0 43 13 65 39 65" id="aP"/><path fill="#a9afb8" d="M85 4C-2 5 27-109 22-190h50c7 57-23 150 33 157 60-5 35-97 40-157h50l1 190h-47c-2-12 1-28-3-38-12 25-28 42-61 42" id="aQ"/><g id="t"><use transform="matrix(0.0728395061728395,0,0,0.0728395061728395,0,0)" xlink:href="#aP"/><use transform="matrix(0.0728395061728395,0,0,0.0728395061728395,15.95185185185185,0)" xlink:href="#aQ"/></g><path fill="#a9afb8" d="M137-138c1-29-70-34-71-4 15 46 118 7 119 86 1 83-164 76-172 9l43-7c4 19 20 25 44 25 33 8 57-30 24-41C81-84 22-81 20-136c-2-80 154-74 161-7" id="aR"/><path fill="#a9afb8" d="M25-224v-37h50v37H25zM25 0v-190h50V0H25" id="aS"/><path fill="#a9afb8" d="M115-3C79 11 28 4 28-45v-112H4v-33h27l15-45h31v45h36v33H77v99c-1 23 16 31 38 25v30" id="aT"/><g id="u"><use transform="matrix(0.0728395061728395,0,0,0.0728395061728395,0,0)" xlink:href="#aR"/><use transform="matrix(0.0728395061728395,0,0,0.0728395061728395,14.5679012345679,0)" xlink:href="#aS"/><use transform="matrix(0.0728395061728395,0,0,0.0728395061728395,21.85185185185185,0)" xlink:href="#aT"/><use transform="matrix(0.0728395061728395,0,0,0.0728395061728395,30.51975308641975,0)" xlink:href="#aG"/></g><path fill="#a9afb8" d="M240 0l2-218c-23 76-54 145-80 218h-23L58-218 59 0H30v-248h44l77 211c21-75 51-140 76-211h43V0h-30" id="aU"/><path fill="#a9afb8" d="M24-231v-30h32v30H24zM24 0v-190h32V0H24" id="aV"/><path fill="#a9afb8" d="M135-143c-3-34-86-38-87 0 15 53 115 12 119 90S17 21 10-45l28-5c4 36 97 45 98 0-10-56-113-15-118-90-4-57 82-63 122-42 12 7 21 19 24 35" id="aW"/><g id="w"><use transform="matrix(0.04248971193415638,0,0,0.04248971193415638,0,0)" xlink:href="#aU"/><use transform="matrix(0.04248971193415638,0,0,0.04248971193415638,12.704423868312757,0)" xlink:href="#aV"/><use transform="matrix(0.04248971193415638,0,0,0.04248971193415638,16.06111111111111,0)" xlink:href="#aW"/></g><path fill="#a9afb8" d="M141-36C126-15 110 5 73 4 37 3 15-17 15-53c-1-64 63-63 125-63 3-35-9-54-41-54-24 1-41 7-42 31l-33-3c5-37 33-52 76-52 45 0 72 20 72 64v82c-1 20 7 32 28 27v20c-31 9-61-2-59-35zM48-53c0 20 12 33 32 33 41-3 63-29 60-74-43 2-92-5-92 41zm62-158l-58-49v-5h36c12 19 30 32 38 54h-16" id="aX"/><use transform="matrix(0.04248971193415638,0,0,0.04248971193415638,0,0)" xlink:href="#aX" id="x"/><path fill="#a9afb8" d="M24-231v-30h32v30H24zM-9 49c24 4 33-6 33-30v-209h32V24c2 40-23 58-65 49V49" id="aY"/><path fill="#a9afb8" d="M100-194c62-1 85 37 85 99 1 63-27 99-86 99S16-35 15-95c0-66 28-99 85-99zM99-20c44 1 53-31 53-75 0-43-8-75-51-75s-53 32-53 75 10 74 51 75" id="aZ"/><path fill="#a9afb8" d="M84 4C-5 8 30-112 23-190h32v120c0 31 7 50 39 49 72-2 45-101 50-169h31l1 190h-30c-1-10 1-25-2-33-11 22-28 36-60 37" id="ba"/><path fill="#a9afb8" d="M114-163C36-179 61-72 57 0H25l-1-190h30c1 12-1 29 2 39 6-27 23-49 58-41v29" id="bb"/><g id="y"><use transform="matrix(0.04248971193415638,0,0,0.04248971193415638,0,0)" xlink:href="#aY"/><use transform="matrix(0.04248971193415638,0,0,0.04248971193415638,3.356687242798354,0)" xlink:href="#aZ"/><use transform="matrix(0.04248971193415638,0,0,0.04248971193415638,11.854629629629626,0)" xlink:href="#ba"/><use transform="matrix(0.04248971193415638,0,0,0.04248971193415638,20.352572016460904,0)" xlink:href="#bb"/></g><path fill="#a9afb8" d="M101-251c82-7 93 87 43 132L82-64C71-53 59-42 53-27h129V0H18c2-99 128-94 128-182 0-28-16-43-45-43s-46 15-49 41l-32-3c6-41 34-60 81-64" id="bc"/><path fill="#a9afb8" d="M27 0v-27h64v-190l-56 39v-29l58-41h29v221h61V0H27" id="bd"/><g id="z"><use transform="matrix(0.04248971193415638,0,0,0.04248971193415638,0,0)" xlink:href="#bc"/><use transform="matrix(0.04248971193415638,0,0,0.04248971193415638,8.497942386831275,0)" xlink:href="#bd"/></g><path fill="#a9afb8" d="M117-194c89-4 53 116 60 194h-32v-121c0-31-8-49-39-48C34-167 62-67 57 0H25l-1-190h30c1 10-1 24 2 32 11-22 29-35 61-36" id="be"/><path fill="#a9afb8" d="M108 0H70L1-190h34L89-25l56-165h34" id="bf"/><path fill="#a9afb8" d="M100-194c63 0 86 42 84 106H49c0 40 14 67 53 68 26 1 43-12 49-29l28 8c-11 28-37 45-77 45C44 4 14-33 15-96c1-61 26-98 85-98zm52 81c6-60-76-77-97-28-3 7-6 17-6 28h103" id="bg"/><path fill="#a9afb8" d="M210-169c-67 3-38 105-44 169h-31v-121c0-29-5-50-35-48C34-165 62-65 56 0H25l-1-190h30c1 10-1 24 2 32 10-44 99-50 107 0 11-21 27-35 58-36 85-2 47 119 55 194h-31v-121c0-29-5-49-35-48" id="bh"/><path fill="#a9afb8" d="M115-194c53 0 69 39 70 98 0 66-23 100-70 100C84 3 66-7 56-30L54 0H23l1-261h32v101c10-23 28-34 59-34zm-8 174c40 0 45-34 45-75 0-40-5-75-45-74-42 0-51 32-51 76 0 43 10 73 51 73" id="bi"/><g id="A"><use transform="matrix(0.04248971193415638,0,0,0.04248971193415638,0,0)" xlink:href="#be"/><use transform="matrix(0.04248971193415638,0,0,0.04248971193415638,8.497942386831275,0)" xlink:href="#aZ"/><use transform="matrix(0.04248971193415638,0,0,0.04248971193415638,16.99588477366255,0)" xlink:href="#bf"/><use transform="matrix(0.04248971193415638,0,0,0.04248971193415638,24.644032921810698,0)" xlink:href="#bg"/><use transform="matrix(0.04248971193415638,0,0,0.04248971193415638,33.141975308641975,0)" xlink:href="#bh"/><use transform="matrix(0.04248971193415638,0,0,0.04248971193415638,45.84639917695473,0)" xlink:href="#bi"/><use transform="matrix(0.04248971193415638,0,0,0.04248971193415638,54.344341563786,0)" xlink:href="#bb"/><use transform="matrix(0.04248971193415638,0,0,0.04248971193415638,59.400617283950616,0)" xlink:href="#bg"/></g><path fill="#a9afb8" d="M101-251c68 0 85 55 85 127S166 4 100 4C33 4 14-52 14-124c0-73 17-127 87-127zm-1 229c47 0 54-49 54-102s-4-102-53-102c-51 0-55 48-55 102 0 53 5 102 54 102" id="bj"/><path fill="#a9afb8" d="M126-127c33 6 58 20 58 59 0 88-139 92-164 29-3-8-5-16-6-25l32-3c6 27 21 44 54 44 32 0 52-15 52-46 0-38-36-46-79-43v-28c39 1 72-4 72-42 0-27-17-43-46-43-28 0-47 15-49 41l-32-3c6-42 35-63 81-64 48-1 79 21 79 65 0 36-21 52-52 59" id="bk"/><g id="B"><use transform="matrix(0.04248971193415638,0,0,0.04248971193415638,0,0)" xlink:href="#bc"/><use transform="matrix(0.04248971193415638,0,0,0.04248971193415638,8.497942386831275,0)" xlink:href="#bj"/><use transform="matrix(0.04248971193415638,0,0,0.04248971193415638,16.99588477366255,0)" xlink:href="#bc"/><use transform="matrix(0.04248971193415638,0,0,0.04248971193415638,25.493827160493822,0)" xlink:href="#bk"/></g><path fill="#333" d="M24 0v-248h52v208h133V0H24" id="bl"/><path fill="#333" d="M185-48c-13 30-37 53-82 52C43 2 14-33 14-96s30-98 90-98c62 0 83 45 84 108H66c0 31 8 55 39 56 18 0 30-7 34-22zm-45-69c5-46-57-63-70-21-2 6-4 13-4 21h74zm-67-91v-5l45-51h45v8l-60 48H73" id="bm"/><path fill="#333" d="M195-6C206 82 75 100 31 46c-4-6-6-13-8-21l49-6c3 16 16 24 34 25 40 0 42-37 40-79-11 22-30 35-61 35-53 0-70-43-70-97 0-56 18-96 73-97 30 0 46 14 59 34l2-30h47zm-90-29c32 0 41-27 41-63 0-35-9-62-40-62-32 0-39 29-40 63 0 36 9 62 39 62" id="bn"/><path fill="#333" d="M185-48c-13 30-37 53-82 52C43 2 14-33 14-96s30-98 90-98c62 0 83 45 84 108H66c0 31 8 55 39 56 18 0 30-7 34-22zm-45-69c5-46-57-63-70-21-2 6-4 13-4 21h74" id="bo"/><path fill="#333" d="M135-194c87-1 58 113 63 194h-50c-7-57 23-157-34-157-59 0-34 97-39 157H25l-1-190h47c2 12-1 28 3 38 12-26 28-41 61-42" id="bp"/><path fill="#333" d="M88-194c31-1 46 15 58 34l-1-101h50l1 261h-48c-2-10 0-23-3-31C134-8 116 4 84 4 32 4 16-41 15-95c0-56 19-97 73-99zm17 164c33 0 40-30 41-66 1-37-9-64-41-64s-38 30-39 65c0 43 13 65 39 65" id="bq"/><g id="C"><use transform="matrix(0.055555555555555546,0,0,0.055555555555555546,0,0)" xlink:href="#bl"/><use transform="matrix(0.055555555555555546,0,0,0.055555555555555546,12.166666666666664,0)" xlink:href="#bm"/><use transform="matrix(0.055555555555555546,0,0,0.055555555555555546,23.27777777777777,0)" xlink:href="#bn"/><use transform="matrix(0.055555555555555546,0,0,0.055555555555555546,35.444444444444436,0)" xlink:href="#bo"/><use transform="matrix(0.055555555555555546,0,0,0.055555555555555546,46.55555555555554,0)" xlink:href="#bp"/><use transform="matrix(0.055555555555555546,0,0,0.055555555555555546,58.722222222222214,0)" xlink:href="#bq"/><use transform="matrix(0.055555555555555546,0,0,0.055555555555555546,70.88888888888887,0)" xlink:href="#bo"/></g><path fill="#333" d="M190 0L58-211 59 0H30v-248h39L202-35l-2-213h31V0h-41" id="br"/><g id="D"><use transform="matrix(0.05,0,0,0.05,0,0)" xlink:href="#br"/><use transform="matrix(0.05,0,0,0.05,12.950000000000001,0)" xlink:href="#av"/><use transform="matrix(0.05,0,0,0.05,22.950000000000003,0)" xlink:href="#al"/><use transform="matrix(0.05,0,0,0.05,31.950000000000003,0)" xlink:href="#aj"/><use transform="matrix(0.05,0,0,0.05,35.900000000000006,0)" xlink:href="#aA"/><use transform="matrix(0.05,0,0,0.05,45.900000000000006,0)" xlink:href="#av"/><use transform="matrix(0.05,0,0,0.05,55.900000000000006,0)" xlink:href="#ag"/><use transform="matrix(0.05,0,0,0.05,60.900000000000006,0)" xlink:href="#aj"/><use transform="matrix(0.05,0,0,0.05,64.85000000000001,0)" xlink:href="#au"/><use transform="matrix(0.05,0,0,0.05,74.85000000000001,0)" xlink:href="#af"/></g><path fill="#333" d="M16-82v-28h88v28H16" id="bs"/><use transform="matrix(0.05,0,0,0.05,0,0)" xlink:href="#bs" id="E"/><path fill="#333" d="M27 0v-27h64v-190l-56 39v-29l58-41h29v221h61V0H27" id="bt"/><g id="F"><use transform="matrix(0.05,0,0,0.05,0,0)" xlink:href="#bt"/><use transform="matrix(0.05,0,0,0.05,10,0)" xlink:href="#ai"/><use transform="matrix(0.05,0,0,0.05,20,0)" xlink:href="#ah"/></g><g id="G"><use transform="matrix(0.05,0,0,0.05,0,0)" xlink:href="#af"/><use transform="matrix(0.05,0,0,0.05,10,0)" xlink:href="#aj"/><use transform="matrix(0.05,0,0,0.05,13.949999999999998,0)" xlink:href="#al"/><use transform="matrix(0.05,0,0,0.05,22.95,0)" xlink:href="#ai"/><use transform="matrix(0.05,0,0,0.05,32.95,0)" xlink:href="#av"/><use transform="matrix(0.05,0,0,0.05,42.95,0)" xlink:href="#aq"/></g><g id="H"><use transform="matrix(0.05,0,0,0.05,0,0)" xlink:href="#ay"/><use transform="matrix(0.05,0,0,0.05,12.950000000000001,0)" xlink:href="#au"/><use transform="matrix(0.05,0,0,0.05,22.950000000000003,0)" xlink:href="#af"/><use transform="matrix(0.05,0,0,0.05,32.95,0)" xlink:href="#ag"/><use transform="matrix(0.05,0,0,0.05,37.95,0)" xlink:href="#ai"/><use transform="matrix(0.05,0,0,0.05,47.95,0)" xlink:href="#af"/><use transform="matrix(0.05,0,0,0.05,57.95,0)" xlink:href="#aq"/></g><path fill="#333" d="M101-251c82-7 93 87 43 132L82-64C71-53 59-42 53-27h129V0H18c2-99 128-94 128-182 0-28-16-43-45-43s-46 15-49 41l-32-3c6-41 34-60 81-64" id="bu"/><g id="I"><use transform="matrix(0.05,0,0,0.05,0,0)" xlink:href="#bu"/><use transform="matrix(0.05,0,0,0.05,10,0)" xlink:href="#ai"/></g><path fill="#333" d="M30-248c87 1 191-15 191 75 0 78-77 80-158 76V0H30v-248zm33 125c57 0 124 11 124-50 0-59-68-47-124-48v98" id="bv"/><path fill="#333" d="M145-31C134-9 116 4 85 4 32 4 16-35 15-94c0-59 17-99 70-100 32-1 48 14 60 33 0-11-1-24 2-32h30l-1 268h-32zM93-21c41 0 51-33 51-76s-8-73-50-73c-40 0-46 35-46 75s5 74 45 74" id="bw"/><g id="J"><use transform="matrix(0.05,0,0,0.05,0,0)" xlink:href="#bv"/><use transform="matrix(0.05,0,0,0.05,12,0)" xlink:href="#au"/><use transform="matrix(0.05,0,0,0.05,22,0)" xlink:href="#ar"/><use transform="matrix(0.05,0,0,0.05,25.950000000000003,0)" xlink:href="#aj"/><use transform="matrix(0.05,0,0,0.05,29.899999999999995,0)" xlink:href="#ag"/><use transform="matrix(0.05,0,0,0.05,34.9,0)" xlink:href="#aj"/><use transform="matrix(0.05,0,0,0.05,38.85,0)" xlink:href="#bw"/><use transform="matrix(0.05,0,0,0.05,48.85,0)" xlink:href="#aq"/><use transform="matrix(0.05,0,0,0.05,58.85,0)" xlink:href="#ai"/></g><g id="K"><use transform="matrix(0.05,0,0,0.05,0,0)" xlink:href="#as"/><use transform="matrix(0.05,0,0,0.05,10,0)" xlink:href="#ai"/></g><path fill="#333" d="M101-234c-31-9-42 10-38 44h38v23H63V0H32v-167H5v-23h27c-7-52 17-82 69-68v24" id="bx"/><g id="L"><use transform="matrix(0.05,0,0,0.05,0,0)" xlink:href="#am"/><use transform="matrix(0.05,0,0,0.05,9,0)" xlink:href="#au"/><use transform="matrix(0.05,0,0,0.05,19,0)" xlink:href="#af"/><use transform="matrix(0.05,0,0,0.05,29,0)" xlink:href="#bx"/><use transform="matrix(0.05,0,0,0.05,34,0)" xlink:href="#aj"/><use transform="matrix(0.05,0,0,0.05,37.95,0)" xlink:href="#as"/><use transform="matrix(0.05,0,0,0.05,47.95,0)" xlink:href="#ai"/><use transform="matrix(0.05,0,0,0.05,57.95,0)" xlink:href="#af"/><use transform="matrix(0.05,0,0,0.05,67.95,0)" xlink:href="#ag"/><use transform="matrix(0.05,0,0,0.05,72.95,0)" xlink:href="#aj"/><use transform="matrix(0.05,0,0,0.05,76.9,0)" xlink:href="#av"/><use transform="matrix(0.05,0,0,0.05,86.9,0)" xlink:href="#ar"/><use transform="matrix(0.05,0,0,0.05,90.85000000000001,0)" xlink:href="#aj"/><use transform="matrix(0.05,0,0,0.05,94.80000000000001,0)" xlink:href="#ag"/><use transform="matrix(0.05,0,0,0.05,99.80000000000001,0)" xlink:href="#ao"/></g><g id="M"><use transform="matrix(0.05,0,0,0.05,0,0)" xlink:href="#bv"/><use transform="matrix(0.05,0,0,0.05,12,0)" xlink:href="#ar"/><use transform="matrix(0.05,0,0,0.05,15.949999999999998,0)" xlink:href="#av"/><use transform="matrix(0.05,0,0,0.05,25.950000000000003,0)" xlink:href="#af"/></g><g id="N"><use transform="matrix(0.05,0,0,0.05,0,0)" xlink:href="#as"/><use transform="matrix(0.05,0,0,0.05,10,0)" xlink:href="#aq"/></g><g id="O"><use transform="matrix(0.05,0,0,0.05,0,0)" xlink:href="#ak"/><use transform="matrix(0.05,0,0,0.05,9,0)" xlink:href="#aj"/><use transform="matrix(0.05,0,0,0.05,12.949999999999998,0)" xlink:href="#ag"/><use transform="matrix(0.05,0,0,0.05,17.95,0)" xlink:href="#ai"/></g><path fill="#333" d="M141 0L90-78 38 0H4l68-98-65-92h35l48 74 47-74h35l-64 92 68 98h-35" id="by"/><g id="P"><use transform="matrix(0.05,0,0,0.05,0,0)" xlink:href="#ay"/><use transform="matrix(0.05,0,0,0.05,12.950000000000001,0)" xlink:href="#au"/><use transform="matrix(0.05,0,0,0.05,22.950000000000003,0)" xlink:href="#af"/><use transform="matrix(0.05,0,0,0.05,32.95,0)" xlink:href="#af"/><use transform="matrix(0.05,0,0,0.05,42.95,0)" xlink:href="#ai"/><use transform="matrix(0.05,0,0,0.05,52.95,0)" xlink:href="#by"/><use transform="matrix(0.05,0,0,0.05,61.95,0)" xlink:href="#aj"/><use transform="matrix(0.05,0,0,0.05,65.9,0)" xlink:href="#au"/><use transform="matrix(0.05,0,0,0.05,75.9,0)" xlink:href="#af"/></g><g id="Q"><use transform="matrix(0.05,0,0,0.05,0,0)" xlink:href="#br"/><use transform="matrix(0.05,0,0,0.05,12.950000000000001,0)" xlink:href="#au"/><use transform="matrix(0.05,0,0,0.05,22.950000000000003,0)" xlink:href="#aq"/><use transform="matrix(0.05,0,0,0.05,32.95,0)" xlink:href="#ak"/></g><g id="R"><use transform="matrix(0.05,0,0,0.05,0,0)" xlink:href="#am"/><use transform="matrix(0.05,0,0,0.05,9,0)" xlink:href="#au"/><use transform="matrix(0.05,0,0,0.05,19,0)" xlink:href="#af"/><use transform="matrix(0.05,0,0,0.05,29,0)" xlink:href="#ag"/><use transform="matrix(0.05,0,0,0.05,34,0)" xlink:href="#av"/><use transform="matrix(0.05,0,0,0.05,44,0)" xlink:href="#am"/><use transform="matrix(0.05,0,0,0.05,53,0)" xlink:href="#ag"/><use transform="matrix(0.05,0,0,0.05,58,0)" xlink:href="#ai"/><use transform="matrix(0.05,0,0,0.05,68,0)" xlink:href="#ah"/></g><g id="S"><use transform="matrix(0.05,0,0,0.05,0,0)" xlink:href="#bv"/><use transform="matrix(0.05,0,0,0.05,12,0)" xlink:href="#av"/><use transform="matrix(0.05,0,0,0.05,22,0)" xlink:href="#ah"/></g><g id="T"><use transform="matrix(0.05,0,0,0.05,0,0)" xlink:href="#ag"/><use transform="matrix(0.05,0,0,0.05,5,0)" xlink:href="#ao"/><use transform="matrix(0.05,0,0,0.05,15,0)" xlink:href="#ar"/><use transform="matrix(0.05,0,0,0.05,18.95,0)" xlink:href="#ao"/><use transform="matrix(0.05,0,0,0.05,28.950000000000003,0)" xlink:href="#ax"/><use transform="matrix(0.05,0,0,0.05,38.95,0)" xlink:href="#ap"/><use transform="matrix(0.05,0,0,0.05,48.95,0)" xlink:href="#au"/><use transform="matrix(0.05,0,0,0.05,58.95,0)" xlink:href="#af"/><use transform="matrix(0.05,0,0,0.05,68.95,0)" xlink:href="#ai"/></g><path fill="#333" d="M210-169c-67 3-38 105-44 169h-31v-121c0-29-5-50-35-48C34-165 62-65 56 0H25l-1-190h30c1 10-1 24 2 32 10-44 99-50 107 0 11-21 27-35 58-36 85-2 47 119 55 194h-31v-121c0-29-5-49-35-48" id="bz"/><g id="U"><use transform="matrix(0.05,0,0,0.05,0,0)" xlink:href="#bx"/><use transform="matrix(0.05,0,0,0.05,5,0)" xlink:href="#au"/><use transform="matrix(0.05,0,0,0.05,15,0)" xlink:href="#ah"/><use transform="matrix(0.05,0,0,0.05,20.95,0)" xlink:href="#bz"/><use transform="matrix(0.05,0,0,0.05,35.9,0)" xlink:href="#aq"/><use transform="matrix(0.05,0,0,0.05,45.9,0)" xlink:href="#ar"/><use transform="matrix(0.05,0,0,0.05,49.85,0)" xlink:href="#av"/><use transform="matrix(0.05,0,0,0.05,59.85,0)" xlink:href="#aj"/><use transform="matrix(0.05,0,0,0.05,63.800000000000004,0)" xlink:href="#ah"/><use transform="matrix(0.05,0,0,0.05,69.75,0)" xlink:href="#ai"/></g><path fill="#333" d="M30 0v-248h33v221h125V0H30" id="bA"/><g id="V"><use transform="matrix(0.05,0,0,0.05,0,0)" xlink:href="#bA"/><use transform="matrix(0.05,0,0,0.05,10,0)" xlink:href="#au"/><use transform="matrix(0.05,0,0,0.05,20,0)" xlink:href="#am"/><use transform="matrix(0.05,0,0,0.05,29,0)" xlink:href="#av"/><use transform="matrix(0.05,0,0,0.05,39,0)" xlink:href="#ar"/><use transform="matrix(0.05,0,0,0.05,42.95,0)" xlink:href="#aj"/><use transform="matrix(0.05,0,0,0.05,46.900000000000006,0)" xlink:href="#ak"/><use transform="matrix(0.05,0,0,0.05,55.900000000000006,0)" xlink:href="#ai"/><use transform="matrix(0.05,0,0,0.05,65.9,0)" xlink:href="#ah"/></g><g id="W"><use transform="matrix(0.05,0,0,0.05,0,0)" xlink:href="#ar"/><use transform="matrix(0.05,0,0,0.05,3.95,0)" xlink:href="#ai"/></g><g id="X"><use transform="matrix(0.05,0,0,0.05,0,0)" xlink:href="#aA"/><use transform="matrix(0.05,0,0,0.05,10,0)" xlink:href="#av"/><use transform="matrix(0.05,0,0,0.05,20,0)" xlink:href="#ah"/><use transform="matrix(0.05,0,0,0.05,25.950000000000003,0)" xlink:href="#av"/><use transform="matrix(0.05,0,0,0.05,35.95,0)" xlink:href="#aA"/><use transform="matrix(0.05,0,0,0.05,45.95,0)" xlink:href="#ai"/></g></defs></g></svg>